<svg width="20" height="20" viewBox="0 0 20 20" fill="none" xmlns="http://www.w3.org/2000/svg">
<path fill-rule="evenodd" clip-rule="evenodd" d="M3.33329 8.74996C3.33329 5.76329 5.76329 3.33329 8.74996 3.33329C11.7366 3.33329 14.1666 5.76329 14.1666 8.74996C14.1666 10.2416 13.5608 11.5933 12.5825 12.5741C12.5808 12.575 12.5791 12.5758 12.5775 12.5775C12.5758 12.5783 12.5758 12.5808 12.5741 12.5825C11.5933 13.5608 10.2408 14.1666 8.74996 14.1666C5.76329 14.1666 3.33329 11.7366 3.33329 8.74996ZM14.3066 13.1283C15.26 11.9225 15.8333 10.4033 15.8333 8.74996C15.8333 4.84413 12.6558 1.66663 8.74996 1.66663C4.84413 1.66663 1.66663 4.84413 1.66663 8.74996C1.66663 12.6558 4.84413 15.8333 8.74996 15.8333C10.4025 15.8333 11.9225 15.26 13.1283 14.3066L16.9108 18.0891C17.0733 18.2516 17.2866 18.3333 17.5 18.3333C17.7133 18.3333 17.9266 18.2516 18.0891 18.0891C18.415 17.7633 18.415 17.2366 18.0891 16.9108L14.3066 13.1283Z" fill="#989CAC"/>
</svg>
